<svg width="21" height="21" viewBox="0 0 21 21" fill="none" xmlns="http://www.w3.org/2000/svg">
<g clip-path="url(#clip0)">
<path d="M15.7491 0.00461349L13.0259 0.000244141C9.96651 0.000244141 7.98937 2.02872 7.98937 5.16831V7.55114H5.25132C5.01472 7.55114 4.82312 7.74295 4.82312 7.97955V11.432C4.82312 11.6686 5.01493 11.8602 5.25132 11.8602H7.98937V20.5718C7.98937 20.8084 8.18097 21 8.41757 21H11.99C12.2266 21 12.4181 20.8082 12.4181 20.5718V11.8602H15.6196C15.8562 11.8602 16.0478 11.6686 16.0478 11.432L16.0491 7.97955C16.0491 7.86595 16.0039 7.75715 15.9237 7.67676C15.8435 7.59636 15.7343 7.55114 15.6207 7.55114H12.4181V5.53119C12.4181 4.56032 12.6495 4.06745 13.9142 4.06745L15.7487 4.0668C15.9851 4.0668 16.1767 3.87498 16.1767 3.6386V0.43281C16.1767 0.196646 15.9853 0.00505043 15.7491 0.00461349Z" fill="#86BC42"/>
</g>
<defs>
<clipPath id="clip0">
<rect width="21" height="20.9998" fill="white" transform="translate(0 0.000244141)"/>
</clipPath>
</defs>
</svg>
